<?xml version="1.0" encoding="UTF-8"?><svg id="Capa_1" xmlns="http://www.w3.org/2000/svg" viewBox="0 0 516 516"><defs><style>.cls-1{fill:#00bfd4;}.cls-2{fill:#ff5e00;}.cls-3{fill:#919191;}</style></defs><path d="M236.44,171.26v-10.43h64.94v10.43h-64.94Z"/><path d="M279.64,350.78v10.43h-64.94v-10.43h64.94Z"/><path d="M312.26,139.18v10.44h-43.07v-10.44h43.07Z"/><path d="M247.34,382.12v-10.44h43.05v10.44h-43.05Z"/><path class="cls-3" d="M154.74,149.87h10.87c0,2.69,.18,5.36-.05,7.99-.22,2.49,.54,3.71,3.01,4.69,8.2,3.24,13.47,11.34,13.12,19.64h-10.36c-.22-.82-.43-1.76-.71-2.68-1.66-5.49-6.85-8.82-12.24-7.88-5.47,.95-9.39,5.89-9.05,11.41,.33,5.46,4.76,9.93,10.44,10.11,6.83,.22,12.61,2.55,17.02,7.79,9.48,11.3,5.36,28.25-8.32,33.81-2.36,.96-3.03,2.11-2.89,4.42,.17,2.58,.04,5.18,.04,8.03h-10.87c0-2.51-.17-5.08,.05-7.62,.22-2.58-.57-3.87-3.13-4.95-8.4-3.54-12.53-10.25-13.29-19.48h10.71c.22,.85,.43,1.82,.72,2.75,1.63,5.3,6.73,8.58,12.01,7.74,5.49-.87,9.49-5.77,9.22-11.27-.27-5.51-4.61-9.8-10.29-10.31-2.35-.21-4.77-.39-7.01-1.05-8.73-2.59-14.86-10.58-15.26-19.55-.41-9.14,4.75-17.51,13.29-20.89,2.45-.97,3.28-2.14,3.04-4.67-.24-2.55-.05-5.14-.05-8.02Z"/><path class="cls-3" d="M350.47,269.31h10.87c0,2.92,.12,5.82-.04,8.7-.11,1.99,.56,2.86,2.49,3.64,8.69,3.55,13.12,10.25,13.93,19.8h-10.68c-.25-.91-.48-1.98-.83-3.01-1.75-5.26-6.95-8.42-12.21-7.44-5.47,1.02-9.34,5.99-8.95,11.5,.38,5.32,4.72,9.81,10.2,9.99,6.82,.22,12.64,2.43,17.1,7.64,9.69,11.31,5.56,28.42-8.26,34.05-2.14,.87-3.01,1.81-2.81,4.13,.22,2.68,.05,5.38,.05,8.3h-10.87c0-2.86-.14-5.66,.04-8.44,.14-2.13-.56-3.08-2.63-3.89-8.39-3.29-13.72-11.2-13.54-19.8h10.45c.25,.98,.47,1.95,.76,2.9,1.65,5.27,6.82,8.52,12.08,7.62,5.36-.92,9.27-5.64,9.13-11.02-.15-5.52-4.43-10.17-10.07-10.46-4.87-.25-9.42-1.23-13.38-4.15-6.64-4.89-9.8-11.55-8.98-19.69,.85-8.4,5.35-14.57,13.26-17.78,2.32-.94,3.1-2.03,2.93-4.39-.19-2.58-.04-5.19-.04-8.17Z"/><g><path d="M165.55,269.13v33.49h11.33v-35.41c18.13-4.71,32.7-14.75,42.97-30.66,8.02-12.42,11.71-26.12,11.09-40.87-1.31-31.46-23.41-58.34-54.59-65.87,.32-4.21,.12-8.36,1.05-12.25,2.04-8.54,7.69-13.9,16.29-15.85,1.32-.3,3.36,.36,4.37,1.31,5.75,5.45,11.33,11.07,16.86,16.74,1.95,1.99,4.04,2.95,6.89,2.94,24.24-.07,48.48-.07,72.72,0,2.83,0,4.95-.89,6.91-2.89,5.45-5.59,11.12-10.97,16.5-16.62,1.67-1.75,3.27-2,5.41-1.49,8.85,2.13,16.15,10.25,16.27,19.46,.26,18.63,.12,37.29,.1,56.33h10.92v-46.43c-.02-2.98-.03-5.95-.06-8.93-.19-17.39-14.19-31.82-31.45-31.92-40.66-.23-81.33-.21-121.99,0-15.16,.08-28.27,11.78-30.74,26.69-.6,3.63-.63,7.36-.94,11.27-19.67-.94-37.17,4.59-51.93,17.67-14.77,13.09-22.75,29.66-23.76,49.31-.92,17.86,4.28,34,15.69,47.82,15.51,18.79,35.87,27.08,60.1,26.15ZM304.83,101.26c-3.54,3.43-6.48,6.41-9.59,9.2-.82,.74-2.14,1.29-3.23,1.29-22.54,.07-45.08,.07-67.62,0-1.09,0-2.42-.55-3.23-1.29-3.08-2.82-5.99-5.83-9.41-9.2h93.08ZM100.53,199.1c-.1-33.11,26.59-60.14,59.4-60.14,33.39,0,60.12,26.51,60.19,59.7,.07,32.85-26.8,59.61-59.9,59.65-32.58,.04-59.59-26.74-59.69-59.2Z"/><path d="M409.95,272.45c-15.46-17.98-35.42-25.88-59.15-24.95v-3.13h-.17v-24.8h-11.09v29.66c-34.86,8.6-54.82,40.16-54.18,70.08,.65,30.68,21.65,59.4,54.16,67.38,2.26,17.93-6.69,31.87-32.4,28.67,0-1.81,.05-3.69,0-5.57-.3-8.72-7.17-15.74-15.91-15.79-21.97-.12-43.95-.12-65.92,0-8.9,.05-15.77,7.13-16,16.05-.04,1.69,0,3.38,0,5.37-10.26,.64-20.34,1.3-27.74-7.78-2.94-3.61-5.02-7.77-5.05-12.42-.07-11.39,.11-34.78,.25-50.52h-11.14c.04,15.81,.11,39.23,.25,49.94,.22,17.31,14.31,31.68,31.61,31.77,40.55,.22,81.1,.2,121.65,0,15.39-.08,28.45-11.73,30.93-26.87,.59-3.62,.63-7.34,.93-11,41.36,2.42,74.02-29.05,75.72-67.26,.81-18.37-4.69-34.83-16.71-48.81Zm-113.69,142.96h-76.12c0-1.52-.02-2.86,0-4.2,.08-4.42,2.01-6.39,6.46-6.41,11.65-.04,23.3-.01,34.95-.01,8.82,0,17.65,0,26.47,0,6.83,0,8.31,1.5,8.24,8.38,0,.67,0,1.33,0,2.23Zm59.78-37.75c-32.95-.11-59.79-26.81-59.77-59.45,.03-33.39,26.79-59.96,60.33-59.9,32.64,.06,59.31,27.03,59.27,59.94-.04,32.64-27.11,59.52-59.83,59.41Z"/></g><path class="cls-1" d="M422.06,204.37c.08-.1,.15-.21,.23-.31,.08-.11,.16-.21,.23-.32,.08-.12,.15-.25,.22-.37,.06-.1,.12-.2,.18-.3,.07-.13,.12-.26,.18-.38,.05-.11,.11-.21,.15-.33,.05-.12,.09-.25,.14-.38,.04-.12,.09-.24,.13-.36,.04-.13,.07-.26,.1-.39,.03-.12,.07-.25,.09-.37,.03-.15,.05-.3,.07-.46,.01-.11,.04-.21,.05-.32,.05-.53,.05-1.06,0-1.58-.01-.11-.03-.21-.05-.32-.02-.15-.04-.3-.07-.46-.03-.13-.06-.25-.09-.37-.03-.13-.06-.26-.1-.39-.04-.12-.08-.24-.13-.36-.05-.13-.09-.25-.14-.38-.05-.11-.1-.22-.15-.33-.06-.13-.12-.26-.18-.38-.06-.1-.12-.2-.18-.3-.07-.12-.14-.25-.22-.37-.07-.11-.16-.21-.23-.32-.08-.1-.15-.21-.23-.31-.15-.18-.31-.35-.47-.52-.02-.02-.04-.04-.06-.06l-28.04-28.04c-3.12-3.12-8.19-3.12-11.31,0-3.12,3.12-3.12,8.19,0,11.31l14.39,14.39h-86.71c-4.42,0-8,3.58-8,8s3.58,8,8,8h86.71l-14.39,14.39c-3.12,3.12-3.12,8.19,0,11.31,1.56,1.56,3.61,2.34,5.66,2.34s4.09-.78,5.66-2.34l28.04-28.04s.04-.04,.06-.06c.16-.17,.32-.34,.47-.52Z"/><path class="cls-2" d="M213.15,315.06H126.44l14.39-14.39c3.12-3.12,3.12-8.19,0-11.31-3.12-3.12-8.19-3.12-11.31,0l-28.04,28.04c-.06,.06-.1,.12-.16,.18-.13,.13-.25,.27-.37,.41-.09,.11-.17,.23-.26,.34-.07,.1-.14,.19-.21,.29-.08,.13-.16,.26-.24,.39-.06,.09-.12,.19-.17,.28-.07,.13-.13,.26-.19,.39-.05,.11-.1,.21-.15,.32-.05,.13-.09,.26-.14,.38-.04,.12-.09,.23-.12,.36-.04,.13-.07,.26-.1,.39-.03,.12-.07,.24-.09,.37-.03,.15-.05,.3-.07,.46-.01,.11-.04,.21-.05,.32-.05,.53-.05,1.06,0,1.58,.01,.11,.03,.21,.05,.32,.02,.15,.04,.31,.07,.46,.02,.13,.06,.25,.09,.37,.03,.13,.06,.26,.1,.39,.04,.12,.08,.24,.12,.36,.05,.13,.09,.26,.14,.38,.04,.11,.1,.21,.15,.32,.06,.13,.12,.26,.19,.39,.05,.1,.11,.19,.17,.28,.08,.13,.15,.26,.24,.39,.07,.1,.14,.19,.21,.29,.08,.11,.16,.23,.26,.34,.12,.14,.24,.27,.37,.41,.05,.06,.1,.12,.16,.18l28.04,28.04c1.56,1.56,3.61,2.34,5.66,2.34s4.09-.78,5.66-2.34c3.12-3.12,3.12-8.19,0-11.31l-14.39-14.39h86.71c4.42,0,8-3.58,8-8s-3.58-8-8-8Z"/></svg>