<?xml version="1.0" encoding="UTF-8"?><svg id="Capa_1" xmlns="http://www.w3.org/2000/svg" viewBox="0 0 516 516"><defs><style>.cls-1{fill:#6b6b6b;}.cls-2{fill:#00bfd4;}</style></defs><path class="cls-1" d="M395.94,274.74v-10.87c4.81-1.93,5.59-3.08,5.59-8.27,0-10.26,.02-20.52,0-30.78-.01-5.09-2.06-7.14-7.2-7.16-8.71-.04-17.42-.09-26.13,.04-2.37,.03-3.54-.44-4.16-3.05-2.6-10.97-7-21.25-12.91-30.86-.43-.7-.77-1.44-1.29-2.41,6.81-6.76,13.59-13.47,20.34-20.21,4.32-4.31,4.31-6.82,.03-11.12-7.16-7.19-14.31-14.37-21.5-21.53-3.92-3.9-6.68-3.89-10.66,.08-6.83,6.82-13.62,13.67-19.88,19.96-9.15-3.99-17.74-7.74-26.34-11.46-.87-.38-1.8-.62-2.71-.9q-7.86-2.36-7.86-10.72c0-7.04,.03-14.08-.01-21.12-.03-4.86-2.1-6.94-7.03-6.96-10.62-.05-21.24-.05-31.86,0-4.85,.02-6.89,2.16-6.91,7.08-.03,8.83-.08,17.66,.04,26.49,.03,2.23-.42,3.33-2.86,3.91-11.8,2.77-22.76,7.66-33.57,14.49-3.4-3.54-6.73-7.09-10.13-10.56-3.68-3.75-7.37-7.49-11.16-11.11-2.88-2.75-6.08-2.78-8.87-.04-7.9,7.79-15.75,15.64-23.54,23.54-2.95,3-2.83,5.92,.26,9.06,6.2,6.28,12.48,12.49,18.72,18.74,.83,.83,1.61,1.7,2.56,2.71-6.75,10.63-11.61,21.95-14.66,34.07-.21,.84-2.03,1.78-3.12,1.8-8.71,.15-17.42,.07-26.13,.09-6.02,.01-7.83,1.86-7.83,7.97,0,9.9,.11,19.81-.05,29.71-.07,4.31,.96,7.53,5.63,8.36v10.88c-8.54,.75-16.74-6.67-16.93-15.77-.26-12.16-.28-24.34,.01-36.51,.21-9.02,7.9-15.9,17.35-16.07,6.44-.11,12.89,.04,19.33-.1,1.05-.02,2.67-.73,3.01-1.55,2.95-7,5.67-14.1,8.64-21.61-4.44-4.43-9.27-9.2-14.05-14.02-8.45-8.49-8.47-18.27-.06-26.71,7.24-7.27,14.49-14.53,21.77-21.77,8.49-8.45,18.53-8.4,27.1,.1,4.15,4.12,8.35,8.19,12.36,12.44,1.42,1.5,2.51,1.52,4.31,.71,5.97-2.68,12-5.24,18.1-7.59,1.78-.68,2.38-1.46,2.36-3.3-.09-6.44-.09-12.89-.02-19.33,.1-10.04,7.32-17.42,17.38-17.54,11.33-.14,22.67-.15,34,0,10.04,.14,17.21,7.55,17.31,17.62,.06,6.32,.08,12.65-.02,18.97-.03,1.92,.42,2.86,2.42,3.62,6.23,2.35,12.29,5.15,18.5,7.57,.98,.38,2.79,.08,3.55-.62,4.52-4.25,8.82-8.73,13.23-13.08,7.89-7.78,18.15-7.82,26.07-.03,7.65,7.53,15.24,15.13,22.78,22.78,7.62,7.74,7.65,17.71,.07,25.44-4.92,5.02-10,9.89-14.79,14.62,3.01,7.63,5.82,14.93,8.85,22.13,.29,.69,1.91,1.15,2.92,1.17,6.08,.11,12.17,.03,18.25,.06,11.21,.06,18.41,7.2,18.45,18.31,.04,11.1,.09,22.19-.02,33.29-.1,9.59-7.45,16.95-17.02,16.95Z"/><path class="cls-1" d="M338.34,240.41h-11.1c-.82-22.03-9.31-40.26-26.65-53.96-13.04-10.31-28.06-15.11-44.62-14.53-35.5,1.23-65.66,29.6-66.6,68.4h-11.31c1.03-28.14,12.33-50.83,35.76-66.19,27.16-17.81,55.84-18.73,84.32-3.01,27.76,15.33,40.72,44.51,40.19,69.29Z"/><path class="cls-2" d="M258.23,286.35c-18.96-.05-34.28-15.46-34.22-34.43,.06-18.86,15.65-34.35,34.48-34.26,18.89,.09,34.29,15.62,34.23,34.51-.06,18.93-15.5,34.23-34.49,34.18Zm-.02-11.45c12.75,.05,23.03-10.1,23.05-22.78,.03-12.62-10.34-23.02-22.93-23-12.45,.02-22.77,10.26-22.87,22.7-.1,12.71,10.06,23.03,22.75,23.08Z"/><path d="M160.77,309.26c-18.94-.09-34.23-15.55-34.13-34.52,.1-18.85,15.75-34.32,34.57-34.17,18.9,.15,34.25,15.71,34.14,34.6-.11,18.92-15.58,34.18-34.58,34.09Zm.15-11.45c12.73,.03,22.98-10.17,22.97-22.86-.01-12.61-10.43-22.99-23.01-22.92-12.46,.07-22.72,10.33-22.79,22.78-.07,12.7,10.13,22.98,22.83,23Z"/><path d="M355.54,309.26c-18.95-.07-34.25-15.51-34.17-34.47,.08-18.85,15.71-34.34,34.53-34.21,18.89,.12,34.27,15.67,34.18,34.56-.09,18.93-15.54,34.2-34.54,34.13Zm.18-11.45c12.72,0,22.94-10.24,22.9-22.93-.04-12.47-10.25-22.73-22.72-22.85-12.56-.12-23.04,10.26-23.08,22.85-.04,12.7,10.18,22.93,22.9,22.93Z"/><path class="cls-2" d="M281.08,418.34v11.03h-45.34v-11.03h45.34Z"/><path d="M429.99,363.4c-1.06-24.6-20.63-45.92-45.18-47.63-17.15-1.19-34.43-.44-51.67-.35,2.49,4.14,4.11,8.12,5.1,11.07,14.15-.08,28.31-.34,42.44,.15,18.06,.63,33.1,13.42,36.85,31.04,1.25,5.86,1.06,12.08,1.11,18.14,.05,6.54,.25,13.19-.76,19.61-1.75,11.14-12.08,20.89-22.2,21.7v-61.86h-11.36v62.97h-51.31v11.15c.78,.06,1.35,.15,1.93,.15,18.85,0,37.7,.16,56.55-.07,18.71-.23,35.58-14.62,37.82-33.22,1.31-10.83,1.14-21.92,.67-32.85Z"/><path d="M132.23,355.37h-11.32v61.77c-10.18-.96-20.59-10.59-22.05-21.76-1.16-8.93-.8-18.07-.83-27.12-.07-24.38,17.28-41.75,41.61-41.8,13.64-.03,27.29,0,40.93,0,.99-3.18,2.5-7.25,4.6-11-16.48-.15-32.97-.73-49.43-.24-24.96,.74-45.39,19.52-48.49,44.35-1.17,9.41-.67,19.04-.68,28.58-.03,23.96,17.32,41.36,41.2,41.4,17.42,.03,34.84,0,52.25,0h3.65v-11.59h-51.44v-62.59Z"/><path class="cls-2" d="M331.12,330.03c-1.17-6.22-4.81-12.16-7.87-16.25-.02-.02-.04-.04-.05-.06-1.46-1.95-3-3.76-4.59-5.44,0,0-.24-.23-.38-.39-10.2-10.56-23.03-15.75-38.43-15.79-14.32-.04-28.63-.03-42.95,0-18,.04-32.47,7.1-43.26,21.6-2.74,3.78-6.3,9.71-7.96,16.74-.19,.97-.38,1.93-.56,2.88-.1,.66-.21,1.23-.32,1.76-.36,2.1-.64,4.16-.66,6.22-.26,20.28-.29,40.56-.07,60.84,.13,12.42,9.23,24.04,21.37,26.32,7.83,1.48,16.02,1.03,24.05,1.44v-91.78h-11.16v79.73c-16.21,2.12-23.52-8.37-23.07-20.51,.65-17.39,.14-34.83,.17-52.25,.05-24.15,17.34-41.46,41.52-41.55,14.31-.05,28.63-.04,42.94,0,24.11,.06,41.5,17.46,41.53,41.56,.02,18.01,.01,36.03,0,54.04,0,13.31-9.43,21.01-23.05,18.41v-79.44h-11.05v91.37c6.22,0,12.18,.14,18.13-.03,14.59-.42,27.35-12.38,27.22-26.99-.21-24.09,2.04-48.29-1.49-72.46Z"/></svg>