<?xml version="1.0" encoding="UTF-8"?><svg id="Capa_1" xmlns="http://www.w3.org/2000/svg" viewBox="0 0 516 516"><defs><style>.cls-1{fill:#fff;}.cls-2{fill:#6b6b6b;}.cls-3{fill:#00bfd4;}.cls-4{fill:#ff5e00;}</style></defs><path class="cls-3" d="M149.98,257.79h-11.97v-21.81c0-6.12-.22-12.25,.09-18.36,.16-3.17-.99-4.81-3.77-5.87-1.86-.71-3.67-1.6-5.37-2.63-4.68-2.84-8.68-4.35-14.41-.79-6.67,4.14-15.41,1.19-20.49-4.97-4.94-5.99-5.46-14.39-1.3-20.97,4.17-6.59,12-9.74,19.49-7.84,7.75,1.96,13.45,8.52,13.61,16.34,.06,2.73,1.01,3.92,3.3,4.99,5.65,2.64,11.3,5.33,16.68,8.46,1.8,1.04,3.92,3.46,3.95,5.29,.31,15.96,.18,31.93,.18,48.18Zm-36.01-65.68c.1-3.2-2.5-5.99-5.72-6.14-3.2-.14-6.03,2.42-6.22,5.63-.2,3.36,2.54,6.29,5.9,6.32,3.22,.03,5.95-2.6,6.05-5.82Z"/><path class="cls-3" d="M378.09,257.82h-12v-6.75c0-13.11,.08-26.23-.05-39.34-.04-3.87,1.38-6.3,4.91-7.94,5.65-2.63,11.14-5.62,16.76-8.32,1.81-.87,2.44-1.89,2.48-3.97,.15-8.55,6.07-15.42,14.47-17.21,7.67-1.63,15.76,2.31,19.44,9.48,3.74,7.28,2.12,16.02-3.99,21.54-6.17,5.58-15.2,6.28-22.11,1.37-1.96-1.39-3.34-1.47-5.32-.4-3.95,2.14-7.95,4.19-12.04,6.04-2.03,.92-2.61,2.16-2.59,4.31,.09,13.6,.05,27.2,.05,41.19Zm30.05-59.9c3.22-.02,5.9-2.7,5.93-5.92,.03-3.22-2.61-5.95-5.83-6.03-3.37-.09-6.2,2.75-6.12,6.11,.08,3.23,2.79,5.86,6.01,5.85Z"/><path class="cls-3" d="M197.68,191.78h-11.66c0-10-.83-19.93,.24-29.64,.99-8.91-3.67-13.9-9.46-18.71-.88-.73-2.96-.43-4.35-.08-10.26,2.58-20.47-4.07-22.26-14.61-1.71-10.09,6.06-19.95,16.34-20.74,10.41-.8,19.43,7.44,19.46,17.81,0,.75,.18,1.63-.14,2.22-2.84,5.23,.33,8.42,3.97,11.15,6.71,5.03,8.95,11.41,8.37,19.79-.73,10.57-.2,21.22-.23,31.84,0,.23-.13,.46-.29,.97Zm-29.72-59.86c3.22,.02,5.94-2.62,6.03-5.84,.09-3.36-2.75-6.2-6.11-6.12-3.22,.08-5.86,2.81-5.84,6.02,.03,3.23,2.7,5.91,5.92,5.93Z"/><path class="cls-3" d="M330.07,191.88h-11.72c-.1-.99-.27-1.94-.27-2.88-.02-12.49-.16-24.98,.12-37.45,.05-2.34,1.52-4.81,2.83-6.91,1.1-1.75,2.86-3.12,4.43-4.54,3.8-3.43,6.66-6.42,4.98-12.79-1.96-7.43,3.65-15.08,10.98-18.02,7.26-2.91,15.29-.91,20.37,5.08,5.13,6.05,5.7,14.57,1.42,21.25-4.19,6.55-12.07,9.8-19.5,7.6-2.67-.79-4.07-.05-6.15,1.56-6.18,4.79-8.2,10.67-7.64,18.43,.68,9.41,.16,18.9,.16,28.67Zm18.19-71.91c-3.23-.09-6,2.47-6.16,5.7-.16,3.36,2.6,6.25,5.98,6.25,3.22,0,5.92-2.66,5.97-5.89,.05-3.22-2.57-5.97-5.79-6.06Z"/><path class="cls-4" d="M264.05,149.76h-12v-3.94c0-11.87-.05-23.75,.04-35.62,.02-2.2-.42-3.49-2.6-4.63-7.53-3.96-10.95-12.25-8.79-20.34,2.13-7.95,9.15-13.33,17.39-13.32,8.21,.01,15.21,5.44,17.32,13.41,2.14,8.09-1.3,16.27-8.9,20.29-2.03,1.07-2.52,2.24-2.5,4.32,.08,11.87,.04,23.75,.04,35.62v4.21Zm-.03-59.87c-.03-3.23-2.71-5.91-5.93-5.92-3.38-.02-6.15,2.84-6.02,6.21,.13,3.22,2.89,5.82,6.12,5.74,3.22-.08,5.86-2.81,5.83-6.03Z"/><path d="M138.07,281.74v-11.47h11.67v11.47h-11.67Z"/><path d="M366.32,270.04h11.48v11.67h-11.48v-11.67Z"/><path class="cls-1" d="M252.21,287.77v-17.54h11.61v17.54h-11.61Z"/><path d="M240.21,197.7v-11.55h35.54v11.55h-35.54Z"/><path d="M240.13,221.65v-11.41h35.67v11.41h-35.67Z"/><path d="M275.88,234.22v11.55h-35.54v-11.55h35.54Z"/><path d="M306.24,233.7v-11.55h17.54v11.55h-17.54Z"/><path d="M323.92,246.14v11.58h-17.64v-11.58h17.64Z"/><path d="M209.74,233.82h-17.49v-11.67h17.49v11.67Z"/><path d="M209.85,246.21v11.57h-17.54v-11.57h17.54Z"/><path d="M108.54,299.97H407.71c.1-1.29,.21-2.59,.29-3.88,.41-6.08-1.82-8.11-7.92-8.11-17.63-.01-35.25,0-52.88,0h-5.13v-4.38c0-24,0-48,0-71.99,0-4.88-1.13-6.39-5.81-7.8-4.18-1.26-8.39-2.42-12.58-3.63-7.86-2.27-15.73-4.53-23.61-6.81,0-10.03,0-19.65,0-29.27,0-6.17-1.92-8.14-7.99-8.14-22.63-.01-45.25,0-67.88,0-6.3,0-8.15,1.9-8.16,8.34,0,9.62,0,19.23,0,28.98-1.06,.36-1.98,.71-2.92,.98-11.02,3.18-22.06,6.34-33.08,9.52-4.92,1.42-6.01,2.86-6.01,7.99-.01,19.87,0,39.75,0,59.62v16.58c-3.59,0-6.7,0-9.8,0-16.38,0-32.75-.02-49.13,.02-4.58,.01-7.29,2.21-7,6.39,.13,1.86,.29,3.72,.45,5.59Zm191.71-93.96c8.65,2.44,17.07,5.04,25.63,7.13,3.52,.86,4.31,2.44,4.28,5.86-.17,21.49-.09,42.97-.09,64.46v4.34h-29.82v-81.79Zm-36.43,81.76h-11.61v-17.54h11.61v17.54Zm-35.57-119.64h59.54v119.66h-11.74c0-7.27,0-14.36,0-21.45,0-6.57-1.83-8.36-8.52-8.36-6.63,0-13.25-.02-19.88,0-5.57,.02-7.59,2.09-7.61,7.76-.02,7.24,0,14.47,0,21.97h-11.79v-119.58Zm-42.04,46.34c9.78-2.8,19.57-5.61,29.64-8.49v81.82h-29.64v-73.33Z"/><path class="cls-2" d="M395.55,304.72c-.36,3.56-.71,7.13-1.1,11-1.56,0-3.01-.03-4.45,0-8.42,.22-15.34,5.18-18.44,13-2.76,6.95-5.59,13.87-8.58,20.73-3.42,7.83-2.21,15.94,3.59,22.26,1,1.09,2.03,2.14,3.15,3.32-8.64,11.9-18.71,21.98-29.87,30.06-4.31-2.6-8-5.44-12.15-7.19-4.65-1.95-9.53-1.03-14.19,.99-6.74,2.92-13.53,5.77-20.38,8.43-8.14,3.16-13.18,10.15-13.33,18.98-.02,1.22,0,2.44,0,3.85-14.58,2.45-28.81,2.44-43.5,0,0-1.43,.02-2.77,0-4.11-.18-8.57-5.24-15.55-13.22-18.68-6.85-2.68-13.65-5.48-20.38-8.43-8.01-3.52-16.15-2.29-22.56,3.69-.99,.93-1.97,1.88-3.14,2.99-11.86-8.53-21.91-18.64-30.61-30.55,1.14-1.22,2.28-2.34,3.31-3.55,5.65-6.61,6.85-13.9,3.44-21.96-2.91-6.89-5.81-13.78-8.56-20.74-3.16-7.98-10.09-12.91-18.76-13.11-1.23-.03-2.46,0-3.99,0-.38-2.8-.79-5.35-1.06-7.92-.11-1.01-.19-2.03-.26-3.07h-11.53c.56,5.87,1.2,11.73,1.86,17.58,.41,3.66,2.88,5.36,6.5,5.39,2.75,.02,5.5,0,8.25,.02,3.81,.04,6.33,1.94,7.75,5.42,2.89,7.03,5.72,14.09,8.74,21.07,1.59,3.67,1.08,6.8-1.61,9.63-1.9,1.99-3.89,3.88-5.82,5.85-2.56,2.6-2.81,5.47-.77,8.47,10.8,15.9,24.17,29.24,40.07,40.03,2.85,1.93,5.67,1.74,8.19-.65,2-1.89,3.9-3.88,5.85-5.81,2.9-2.87,6.12-3.4,9.93-1.74,6.86,2.98,13.79,5.79,20.73,8.58,3.64,1.47,5.63,4,5.65,7.97,.01,2.62,.02,5.25,0,7.87-.02,3.78,1.72,6.1,5.52,6.83,18.87,3.64,37.74,3.71,56.6-.04,3.63-.72,5.32-2.98,5.36-6.59,.03-2.75,0-5.5,.02-8.25,.04-3.81,1.97-6.3,5.45-7.72,7.04-2.88,14.09-5.73,21.07-8.73,3.66-1.57,6.81-1.04,9.63,1.67,1.98,1.9,3.88,3.9,5.85,5.81,2.62,2.55,5.48,2.74,8.48,.7,15.9-10.81,29.24-24.18,40.02-40.08,1.93-2.84,1.68-5.67-.72-8.19-1.81-1.9-3.73-3.7-5.55-5.58-3.39-3.5-3.76-6.08-1.77-10.52,2.15-4.78,4.54-9.48,6.26-14.41,4.02-11.5,4.17-11.82,16.89-11.63,5.43,.08,7.45-1.38,8.12-6.64,.69-5.43,1.28-10.87,1.77-16.32h-11.76Z"/><path class="cls-2" d="M202.17,370.63c18.05,13.31,38.47,19.12,60.88,18.13,42.98-1.92,83.13-34.71,89.26-84.03h-12.24c-3.88,35.49-34.83,72-81.82,72.14-46.55,.14-78.21-35.87-82.25-72.14h-12.25c3.52,27.12,15.98,49.36,38.41,65.91Z"/></svg>