<?xml version="1.0" encoding="utf-8"?>
<!-- Generator: Adobe Illustrator 26.5.0, SVG Export Plug-In . SVG Version: 6.00 Build 0)  -->
<svg version="1.1" id="Capa_1" xmlns="http://www.w3.org/2000/svg" xmlns:xlink="http://www.w3.org/1999/xlink" x="0px" y="0px"
	 viewBox="0 0 40.3 19.2" style="enable-background:new 0 0 40.3 19.2;" xml:space="preserve">
<style type="text/css">
	.st0{fill:#00BFB7;}
	.st1{fill:#FFFFFF;}
</style>
<g>
	<g>
		<path class="st0" d="M31.3,11.5c0-0.2,0.1-0.3,0.1-0.5c0-1-0.6-1.8-1.5-2.2l-1.5-0.2C28.6,7,29.6,5.9,31,5.4
			c-0.4-1.5-2-2.2-3.6-2.2c-1.8,0-3.5,0.9-4,2.7l2.3,0.5c0.2-0.7,0.7-1.2,1.5-1.2c0.7,0,1.3,0.4,1.3,1.2c0,1-0.9,1.3-1.9,1.3H26v1.9
			h0.7c1.1,0,2.2,0.3,2.2,1.4c0,1-0.8,1.4-1.5,1.4c-1,0-1.6-0.6-1.8-1.3l-2.3,0.6c0.6,2,2.3,2.8,4.3,2.8c0.4,0,0.8-0.1,1.2-0.2V14
			L31.3,11.5z"/>
		<path class="st0" d="M32,13.9l2.5-2.2c1-0.9,1.9-1.8,1.9-3.3c0-2.2-1.9-3.3-3.9-3.3c-0.5,0-1,0.1-1.4,0.2c0.1,0.3,0.1,0.5,0.1,0.8
			c0,1.2-0.8,2-1.8,2.3l0,0c0.2,0,0.4,0.1,0.6,0.2l0.9,0.1c0.1-0.9,0.7-1.6,1.5-1.6s1.3,0.5,1.3,1.3c0,0.6-0.3,1.1-0.9,1.6l-1.4,1.3
			c-0.2,1.5-1.4,2.4-2.7,2.8v1.8h7.7v-2.2H32V13.9z"/>
	</g>
	<g>
		<path class="st1" d="M4.6,5.2h2c1.6,0,2.7,1.1,2.7,2.5l0,0c0,1.4-1.1,2.5-2.7,2.5h-2C4.6,10.2,4.6,5.2,4.6,5.2z M6.6,9.3
			c0.9,0,1.5-0.6,1.5-1.5l0,0c0-0.9-0.6-1.5-1.5-1.5H5.7v3H6.6z"/>
		<path class="st1" d="M10,5.2h3.8v1h-2.7v1h2.4v1h-2.4v1.1h2.7v1H10V5.2z"/>
		<path class="st1" d="M14.3,5.2h1.2l1.3,3.5l1.3-3.5h1.2l-2,5.1h-1L14.3,5.2z"/>
		<path class="st1" d="M19.9,5.2h3.8v1H21v1h2.4v1H21v1.1h2.7v1h-3.8C19.9,10.3,19.9,5.2,19.9,5.2z"/>
	</g>
	<g>
		<path class="st1" d="M4.7,10.7h0.7v2.7h1.7V14H4.7V10.7z"/>
		<path class="st1" d="M7.4,12.3c0-1,0.8-1.7,1.8-1.7s1.8,0.7,1.8,1.7S10.2,14,9.2,14C8.1,14,7.4,13.3,7.4,12.3z M10.2,12.3
			c0-0.6-0.4-1.1-1-1.1s-1,0.4-1,1.1c0,0.6,0.4,1.1,1,1.1S10.2,13,10.2,12.3z"/>
		<path class="st1" d="M11.6,10.7H13c0.8,0,1.3,0.5,1.3,1.1l0,0c0,0.8-0.6,1.2-1.3,1.2h-0.6v1h-0.7L11.6,10.7L11.6,10.7z M12.9,12.3
			c0.4,0,0.6-0.2,0.6-0.5l0,0c0-0.3-0.2-0.5-0.6-0.5h-0.6v1H12.9z"/>
		<path class="st1" d="M14.8,10.7h2.5v0.6h-1.8V12h1.6v0.7h-1.6v0.7h1.8V14h-2.5C14.8,14,14.8,10.7,14.8,10.7z"/>
		<path class="st1" d="M18,10.7h1.5c0.4,0,0.8,0.1,1,0.3s0.3,0.4,0.3,0.8l0,0c0,0.5-0.3,0.9-0.7,1l0.8,1.2H20l-0.7-1.1h-0.6V14H18
			V10.7z M19.5,12.3c0.4,0,0.6-0.2,0.6-0.5l0,0c0-0.3-0.2-0.5-0.6-0.5h-0.7v1H19.5z"/>
		<path class="st1" d="M21.3,13.5l0.4-0.5c0.3,0.2,0.6,0.4,1,0.4c0.3,0,0.5-0.1,0.5-0.3l0,0c0-0.2-0.1-0.3-0.7-0.4
			c-0.7-0.2-1.1-0.4-1.1-1l0,0c0-0.6,0.5-1,1.2-1c0.5,0,0.9,0.2,1.2,0.4l-0.4,0.5c-0.3-0.2-0.6-0.3-0.9-0.3s-0.4,0.1-0.4,0.3l0,0
			c0,0.2,0.1,0.3,0.7,0.4c0.7,0.2,1.1,0.4,1.1,1l0,0c0,0.7-0.5,1-1.2,1C22.2,14,21.7,13.9,21.3,13.5z"/>
	</g>
	<g>
		<path class="st1" d="M30.6,12L30,11.1L29.3,12h-1.1l1.2-1.5l-1.1-1.4h1.1L30,9.9l0.6-0.8h1.1l-1.1,1.4l1.2,1.5
			C31.8,12,30.6,12,30.6,12z"/>
	</g>
</g>
</svg>
